<svg id="visual" viewBox="0 0 900 600" width="900" height="600" xmlns="http://www.w3.org/2000/svg" xmlns:xlink="http://www.w3.org/1999/xlink" version="1.1"><rect x="0" y="0" width="900" height="600" fill="#FFFFFF"></rect><defs><linearGradient id="grad1_0" x1="33.3%" y1="100%" x2="100%" y2="0%"><stop offset="20%" stop-color="#ffffff" stop-opacity="1"></stop><stop offset="80%" stop-color="#ffffff" stop-opacity="1"></stop></linearGradient></defs><defs><linearGradient id="grad2_0" x1="0%" y1="100%" x2="66.7%" y2="0%"><stop offset="20%" stop-color="#ffffff" stop-opacity="1"></stop><stop offset="80%" stop-color="#ffffff" stop-opacity="1"></stop></linearGradient></defs><g transform="translate(900, 600)"><path d="M-486.7 0C-492.4 -76.2 -498.1 -152.4 -449.7 -186.3C-401.3 -220.2 -298.8 -211.8 -250.3 -250.3C-201.8 -288.8 -207.2 -374.1 -174.5 -421.3C-141.8 -468.5 -70.9 -477.6 0 -486.7L0 0Z" fill="#17437D"></path></g><g transform="translate(0, 0)"><path d="M486.7 0C488.6 70.3 490.5 140.5 449.7 186.3C408.9 232 325.5 253.3 266.6 266.6C207.6 279.9 173.1 285.2 132.8 320.6C92.4 356 46.2 421.4 0 486.7L0 0Z" fill="#17437D"></path></g></svg>